<?xml version="1.0" encoding="utf-8"?>
<!-- Generator: Adobe Illustrator 16.0.0, SVG Export Plug-In . SVG Version: 6.00 Build 0)  -->
<!DOCTYPE svg PUBLIC "-//W3C//DTD SVG 1.1//EN" "http://www.w3.org/Graphics/SVG/1.1/DTD/svg11.dtd">
<svg version="1.1" id="Calque_1" xmlns="http://www.w3.org/2000/svg" xmlns:xlink="http://www.w3.org/1999/xlink" x="0px" y="0px"
	 width="1280px" height="720px" viewBox="0 0 1280 720" enable-background="new 0 0 1280 720" xml:space="preserve">
<path fill="#C55C6A" d="M631.896,373.448c0.002-0.542,0.003-0.99,0.005-1.432c2.422,0.001,4.854,0.002,7.273,0.003
	c0-2.601,0.001-5.119,0.002-7.657c-3.789-0.298-6.944-1.887-9.314-4.891c-2.132-2.703-3.022-5.821-2.652-9.242
	c0.735-6.805,6.498-11.538,12.906-11.428c6.827,0.117,12.114,5.467,12.563,11.924c0.457,6.562-4.401,13.115-12.002,13.64
	c-0.001,2.519-0.001,5.035-0.001,7.58c2.398-0.001,4.829-0.003,7.257-0.004c-0.007,0.5-0.013,0.948-0.02,1.391
	c-2.393,0-4.822,0-7.278,0c0.003,2.512,0.005,4.936,0.007,7.352c-0.489-0.007-0.947-0.015-1.407-0.021c0-2.378,0-4.801,0.001-7.216
	C636.764,373.447,634.344,373.447,631.896,373.448 M631.888,359.598c4.418,4.435,11.591,4.445,16.038,0.022
	c4.434-4.411,4.451-11.604,0.037-16.04c-4.412-4.435-11.602-4.456-16.042-0.047C627.47,347.951,627.454,355.147,631.888,359.598"/>
</svg>
