<?xml version="1.0" encoding="utf-8"?>
<!-- Generator: Adobe Illustrator 16.0.0, SVG Export Plug-In . SVG Version: 6.00 Build 0)  -->
<!DOCTYPE svg PUBLIC "-//W3C//DTD SVG 1.1//EN" "http://www.w3.org/Graphics/SVG/1.1/DTD/svg11.dtd">
<svg version="1.1" id="Calque_1" xmlns="http://www.w3.org/2000/svg" xmlns:xlink="http://www.w3.org/1999/xlink" x="0px" y="0px"
	 width="94.494px" height="95.853px" viewBox="0 0 94.494 95.853" enable-background="new 0 0 94.494 95.853" xml:space="preserve">
<polygon fill="#696969" points="38.775,58.991 38.438,59.593 37.91,59.665 37.874,60.566 36.104,61.771 36.068,63.088 
	35.389,63.762 35.016,64.104 34.264,64.026 33.849,64.743 33.547,65.38 33.174,65.116 32.645,65.38 32.193,65.308 31.333,64.441 
	30.804,64.406 30.653,63.202 29.672,63.088 29.637,62.522 29.451,62.709 28.337,62.709 28.392,62.95 28.656,64.039 28.729,65.128 
	28.542,65.429 28.355,64.525 27.826,62.462 25.907,60.729 25.949,59.941 25.569,59.905 24.968,60.808 24.782,63.967 24.294,67.161 
	23.952,69.64 23.916,70.284 24.18,69.417 24.704,68.738 25.456,69.417 25.534,69.64 25.756,69.94 24.817,69.982 24.667,69.754 
	24.294,69.905 24.215,70.47 23.801,71.036 23.801,71.896 23.126,75.506 22.261,78.814 21.996,80.096 21.773,80.999 21.058,82.238 
	20.19,83.291 19.518,83.556 19.029,83.628 19.029,84.043 19.48,84.458 20.154,84.494 20.19,84.981 20.721,85.023 20.871,84.681 
	21.586,84.981 22.038,85.096 22.146,85.547 21.888,85.775 21.888,86.485 21.358,86.751 21.322,87.088 21.659,87.467 22.261,87.653 
	22.375,87.088 22.711,86.714 22.676,87.202 22.94,87.581 23.615,87.581 23.916,87.99 24.817,88.14 25.684,88.67 27.109,88.67 
	27.188,89.458 28.163,90.21 28.542,90.661 28.957,90.438 29.33,90.359 29.517,90.547 29.859,90.359 30.516,89.999 30.576,89.223 
	30.875,88.995 31.033,87.755 31.591,87.87 31.82,87.719 31.556,87.189 32.573,86.323 33.174,84.97 33.547,84.481 33.097,83.809 
	32.795,83.356 33.21,82.978 32.573,81.925 31.556,81.853 31.255,81.324 31.52,80.607 31.893,80.121 31.778,79.482 32.08,79.182 
	31.635,78.43 32.007,77.979 32.422,77.9 32.795,78.051 33.325,77.6 33.512,78.165 33.698,78.43 34.112,78.315 34.077,77.828 
	34.341,77.263 34.787,77.642 35.389,77.04 35.652,77.413 36.291,77.299 36.971,77.227 37.271,76.697 38.396,76.589 38.962,77.147 
	39.154,76.962 39.527,76.848 39.377,76.324 39.942,76.174 40.659,76.022 40.502,75.572 40.73,75.307 40.917,74.591 40.502,74.14 
	40.767,73.28 41.333,73.617 42.163,73.466 41.784,72.636 41.482,71.511 42.234,71.475 42.421,70.981 42.765,70.645 42.801,70.079 
	43.625,70.007 44.154,69.255 43.926,69.177 43.89,68.768 44.527,68.688 44.569,68.315 44.871,68.124 45.208,67.521 44.871,67.148 
	44.871,66.733 45.128,66.511 44.792,65.981 44.828,65.158 44.003,65.193 43.667,64.965 43.968,64.592 43.553,64.255 43.854,63.876 
	43.553,63.726 43.553,63.202 44.305,62.522 43.89,62.186 43.667,61.62 42.873,61.506 42.607,61.318 43.173,61.055 42.986,60.796 
	42.163,60.682 41.971,59.93 40.767,59.814 40.502,60.193 40.244,60.266 39.9,59.814 40.057,59.399 39.865,59.026 "/>
<polygon fill="#696969" points="46.019,66.084 45.219,66.457 45.105,66.476 45.129,66.511 44.87,66.734 44.87,67.149 45.207,67.522 
	44.87,68.124 44.569,68.316 44.527,68.689 43.889,68.768 43.925,69.176 44.154,69.255 43.624,70.007 42.8,70.079 42.764,70.645 
	42.421,70.981 42.235,71.476 41.483,71.511 41.783,72.636 42.162,73.466 41.332,73.617 40.767,73.28 40.502,74.141 40.917,74.591 
	40.731,75.308 40.502,75.572 40.658,76.023 39.942,76.173 39.377,76.324 39.527,76.847 39.154,76.962 38.962,77.148 38.396,76.589 
	37.271,76.697 36.97,77.227 36.29,77.299 35.653,77.413 35.388,77.04 34.786,77.642 34.341,77.262 34.076,77.828 34.113,78.315 
	33.697,78.43 33.511,78.165 33.324,77.6 32.795,78.051 32.422,77.9 32.007,77.979 31.634,78.43 32.079,79.183 31.778,79.482 
	31.893,80.12 31.52,80.608 31.255,81.323 31.556,81.854 32.572,81.925 33.21,82.979 32.795,83.357 33.096,83.809 33.547,84.482 
	33.174,84.969 32.572,86.323 31.556,87.189 31.82,87.719 31.592,87.869 31.032,87.755 30.876,88.994 30.575,89.223 30.515,89.999 
	30.611,89.945 31.249,90.324 32.001,90.891 32.073,91.341 32.675,91.828 33.168,91.828 34.407,91.299 34.931,91.9 35.647,92.093 
	35.911,91.643 36.248,91.792 38.505,91.942 38.583,90.095 39.106,90.174 40.087,90.739 41.248,90.962 41.741,90.962 42.379,91.792 
	43.997,91.714 44.635,92.731 45.201,92.502 46.855,92.731 46.976,93.422 48.143,93.152 48.57,92.779 49.208,92.616 49.364,92.297 
	50.748,92.195 49.9,91.185 49.208,91.558 47.986,90.547 48.251,90.174 49.208,90.174 49.1,89.271 49.1,88.579 48.943,87.298 
	47.078,86.396 47.186,86.076 46.759,85.602 47.24,85.385 47.343,84.801 47.932,84.536 47.77,84.163 48.305,83.683 48.57,84.163 
	49.364,83.898 49.737,83.844 49.684,84.109 50.43,84.109 51.121,84.326 51.176,83.634 51.494,83.634 52.661,83.844 53.78,83.844 
	54.629,83.58 54.846,82.888 54.262,82.353 54.418,81.823 54.737,81.348 55.266,81.715 56.65,81.239 56.867,80.813 57.186,80.813 
	57.823,80.813 57.77,79.699 57.77,79.326 58.088,79.326 58.672,79.646 59.256,79.646 59.153,79.007 59.473,78.736 60.109,78.634 
	60.109,78.1 60.801,77.78 60.639,77.04 60.055,77.04 59.526,76.933 59.417,76.504 59.846,76.402 59.846,75.867 60.266,75.494 
	59.947,75.337 59.045,75.494 59.1,75.072 58.461,74.802 58.299,73.526 58.299,72.624 57.77,72.251 57.823,71.505 56.704,70.127 
	56.596,69.063 56.229,69.063 56.066,67.997 55.32,68.105 55.219,67.414 55.11,67.251 54.045,68.16 54.045,69.063 53.78,69.063 
	53.672,69.91 53.407,70.02 53.197,70.494 52.023,70.494 51.922,70.338 51.387,70.338 51.067,70.867 50.646,70.813 50.856,70.175 
	50.375,69.965 50.856,68.846 50.219,68.37 50.002,66.986 49.418,66.83 48.991,67.251 48.781,66.878 48.143,67.517 47.716,67.57 
	46.976,66.511 "/>
<polygon fill="#696969" points="60.134,67.035 59.08,67.414 58.779,68.088 58.105,67.637 57.576,69.291 57.035,70.537 
	57.824,71.505 57.77,72.251 58.299,72.624 58.299,73.526 58.461,74.802 59.099,75.072 59.045,75.494 59.947,75.338 60.266,75.494 
	59.845,75.867 59.845,76.402 59.418,76.505 59.525,76.932 60.056,77.04 60.639,77.04 60.802,77.779 60.109,78.099 60.109,78.635 
	59.472,78.736 59.152,79.008 59.256,79.645 58.672,79.645 58.088,79.326 57.77,79.326 57.77,79.699 57.824,80.813 57.186,80.813 
	56.867,80.813 56.65,81.239 55.267,81.715 54.736,81.348 54.418,81.822 54.262,82.353 54.846,82.888 54.629,83.58 53.781,83.845 
	52.662,83.845 51.494,83.634 51.176,83.634 51.121,84.326 50.43,84.109 49.684,84.109 49.738,83.845 49.365,83.898 48.57,84.164 
	48.306,83.682 47.77,84.164 47.933,84.537 47.343,84.801 47.241,85.385 46.76,85.602 47.187,86.077 47.078,86.396 48.943,87.298 
	49.1,88.58 49.1,89.271 49.207,90.174 48.251,90.174 47.987,90.547 49.207,91.558 49.899,91.185 50.748,92.195 49.365,92.298 
	49.207,92.617 48.57,92.778 48.143,93.151 46.976,93.423 47.042,93.819 47.607,94.349 48.732,94.649 48.769,95.324 49.371,95.853 
	49.822,95.774 50.466,94.986 51.254,94.837 52.492,95.252 53.545,96.153 53.847,95.774 54.111,95.774 54.375,95.962 54.599,95.853 
	54.635,95.324 55.766,95.059 56.139,94.571 56.705,94.385 57.492,94.385 57.986,94.909 58.588,94.951 58.588,94.349 58.287,93.934 
	57.758,93.706 57.643,89.344 57.685,88.104 57.233,88.14 56.854,87.581 57.156,87.088 57.793,87.688 58.358,87.237 58.738,86.864 
	58.81,86.263 60.164,85.848 60.313,85.511 61.367,85.475 61.703,85.06 63.738,83.441 65.013,82.539 66.107,82.617 66.107,83.369 
	66.969,83.327 67.432,83.351 67.769,82.568 68.99,81.822 68.725,81.45 69.043,80.602 70.156,80.758 70.428,78.736 71.914,77.889 
	71.914,77.406 70.795,76.294 70.795,75.439 70.156,74.381 68.828,73.635 68.725,74.219 68.189,74.272 68.033,73.688 67.498,73.791 
	67.396,74.537 66.969,74.381 66.065,73.791 65.639,74.008 65.639,72.942 64.839,72.462 64.947,71.668 64.309,70.976 64.045,69.592 
	63.088,68.371 62.39,68.539 62.24,68.016 61.861,68.016 61.789,68.467 60.813,68.768 "/>
<polygon fill="#696969" points="34.714,42.668 33.999,43.42 33.739,43.871 33.476,43.649 33.36,43.385 32.344,43.42 31.405,43.607 
	30.389,43.686 30.389,44.208 29.865,44.552 28.698,44.286 27.91,44.623 28.282,45.153 28.282,45.604 29.186,46.356 28.962,46.844 
	29.564,47.518 29.299,47.86 29.672,48.42 29.788,49.474 29.564,49.773 29.83,50.226 29.564,50.719 29.601,51.02 29.901,50.79 
	30.274,51.169 29.75,51.506 29.564,51.729 29.149,51.844 28.663,52.072 28.061,51.62 27.344,51.921 27.122,51.32 26.592,51.356 
	25.443,52.055 25.72,52.307 25.119,52.794 25.046,53.173 24.48,53.245 24.18,52.908 23.427,52.836 23.35,52.457 22.898,52.156 
	22.26,52.385 22.675,52.986 23.199,52.986 23.729,53.323 24.144,53.66 24.932,53.624 25.083,53.961 25.605,54.075 25.798,54.599 
	26.135,54.749 26.1,55.164 25.647,55.093 25.498,55.314 25.834,55.803 25.647,56.633 25.196,56.597 25.232,57.119 25.347,57.307 
	24.817,57.307 24.746,57.005 25.083,56.555 24.967,56.295 24.781,56.146 24.704,55.242 24.065,55.164 23.542,54.526 23.463,55.845 
	24.331,56.482 24.402,57.198 24.552,58.022 24.631,58.853 25.083,58.811 25.871,59.454 26.399,59.755 26.436,60.128 26.852,60.206 
	28.055,61.409 28.337,62.709 29.451,62.709 29.636,62.522 29.672,63.088 30.653,63.202 30.803,64.405 31.333,64.441 32.193,65.309 
	32.645,65.38 33.174,65.115 33.547,65.38 33.849,64.742 34.264,64.026 35.016,64.104 35.389,63.762 36.068,63.088 36.104,61.771 
	37.874,60.567 37.91,59.664 38.438,59.593 38.775,58.99 38.986,58.996 39.112,58.426 39.414,58.39 39.6,57.859 39.979,57.745 
	40.431,57.444 40.357,56.506 40.694,56.392 41.369,56.241 41.333,55.904 41.218,55.381 40.694,55.338 40.394,55.002 40.581,54.665 
	40.616,53.648 40.357,53.348 40.658,53.124 41.146,52.56 41.97,52.523 41.97,52.072 42.385,51.729 43.402,51.542 43.475,50.978 
	43.065,50.754 42.836,49.967 42.234,49.889 41.861,49.516 41.146,48.949 41.296,48.498 41.296,47.782 40.616,47.108 40.544,46.579 
	39.9,45.905 39.678,45.002 39.414,44.889 39.112,44.474 38.812,44.659 38.89,45.075 37.91,45.304 36.785,45.304 36.82,44.853 
	36.82,44.137 35.917,43.871 35.917,43.42 35.202,43.271 35.051,42.668 "/>
<polygon fill="#696969" points="47.686,50.791 47.463,51.393 46.784,51.356 46.633,51.277 46.182,51.319 45.845,51.092 
	45.093,51.958 44.491,51.356 44.154,51.692 43.21,51.62 43.102,51.597 42.386,51.729 41.97,52.071 41.97,52.523 41.146,52.56 
	40.659,53.125 40.358,53.348 40.617,53.648 40.581,54.666 40.394,55.002 40.695,55.339 41.218,55.381 41.333,55.904 41.369,56.241 
	40.695,56.392 40.358,56.507 40.43,57.444 39.979,57.745 39.6,57.859 39.413,58.39 39.113,58.426 38.986,58.996 39.865,59.026 
	40.057,59.399 39.901,59.815 40.244,60.267 40.502,60.194 40.767,59.815 41.97,59.93 42.163,60.682 42.987,60.796 43.174,61.055 
	42.608,61.319 42.873,61.506 43.667,61.619 43.89,62.186 44.305,62.522 43.553,63.202 43.553,63.726 43.854,63.877 43.553,64.256 
	43.968,64.593 43.667,64.966 44.004,65.193 44.828,65.157 44.792,65.981 45.105,66.476 45.219,66.458 46.019,66.085 46.976,66.512 
	47.716,67.57 48.143,67.517 48.781,66.879 48.992,67.252 49.419,66.83 50.002,66.986 50.02,67.112 50.508,66.771 50.357,66.397 
	50.129,66.169 50.429,65.796 50.73,65.796 50.923,65.193 51.072,64.893 50.959,64.214 51.445,63.539 52.126,63.125 52.162,62.071 
	52.498,62.258 52.878,62.673 53.251,62.673 53.48,62.408 53.293,61.956 53.48,61.283 53.365,60.646 53.137,60.381 53.137,59.852 
	53.48,59.292 53.402,58.763 52.535,57.896 52.463,57.559 53.179,57.144 53.594,56.922 53.701,56.392 54.154,56.055 54.003,55.339 
	53.701,54.966 53.63,53.799 53.215,52.824 52.8,52.674 52.498,52.145 52.234,52.481 51.976,52.145 51.976,51.692 51.523,51.056 
	50.285,51.205 49.568,51.02 "/>
<polygon fill="#696969" points="56.445,46.958 55.923,47.632 55.621,47.668 55.285,48.011 54.906,47.596 53.895,48.613 
	53.895,49.214 54.082,49.365 54.117,49.665 53.594,50.074 53.101,49.924 52.162,50.117 51.675,50.676 51.494,51.062 51.524,51.055 
	51.976,51.693 51.976,52.144 52.234,52.481 52.498,52.144 52.8,52.674 53.215,52.824 53.63,53.799 53.703,54.966 54.002,55.339 
	54.154,56.055 53.703,56.392 53.594,56.921 53.179,57.144 52.463,57.559 52.535,57.896 53.402,58.762 53.479,59.292 53.137,59.851 
	53.137,60.381 53.365,60.646 53.479,61.283 53.293,61.957 53.479,62.408 53.25,62.673 52.877,62.673 52.498,62.258 52.162,62.071 
	52.125,63.124 51.445,63.539 50.959,64.213 51.072,64.893 50.923,65.194 50.729,65.795 50.43,65.795 50.129,66.168 50.356,66.397 
	50.508,66.771 50.02,67.113 50.219,68.37 50.856,68.846 50.375,69.965 50.856,70.175 50.646,70.813 51.066,70.867 51.386,70.338 
	51.922,70.338 52.023,70.494 53.197,70.494 53.408,70.019 53.672,69.911 53.781,69.063 54.045,69.063 54.045,68.16 55.109,67.251 
	55.219,67.414 55.32,68.106 56.066,67.997 56.229,69.063 56.596,69.063 56.705,70.127 57.035,70.536 57.576,69.291 58.106,67.636 
	58.779,68.088 59.08,67.414 60.134,67.035 60.813,68.767 61.789,68.467 61.861,68.015 62.24,68.015 62.39,68.539 63.088,68.37 
	63.953,69.477 64.496,68.617 65.471,67.901 66.373,67.901 66.674,66.962 67.274,66.92 67.318,66.21 67.877,66.21 67.769,65.946 
	67.617,65.458 67.841,65.079 68.369,64.857 68.593,63.954 68.105,63.389 67.504,63.425 67.576,62.709 66.373,62.185 65.964,62.222 
	65.134,62.901 64.08,62.558 63.966,62.107 64.682,61.433 64.346,60.194 63.365,59.55 62.955,58.576 62.505,57.974 62.619,57.144 
	62.955,56.807 62.354,56.319 62.39,55.983 63.293,55.94 63.22,53.799 62.955,53.275 63.063,52.86 63.689,52.752 63.707,52.71 
	64.496,52.108 64.531,50.64 64.267,50.267 63.666,50.267 63.443,49.966 62.805,49.966 62.619,49.738 62.619,49.172 61.861,47.746 
	61.488,47.481 60.771,48.462 60.471,48.534 60.356,48.047 60.02,47.897 59.869,48.197 59.31,48.197 59.231,47.86 58.853,48.083 
	58.443,48.313 57.992,47.818 57.348,47.518 57.312,47.03 "/>
<polygon fill="#696969" points="11.81,22.94 11.467,23.206 10.607,23.313 10.414,23.579 9.813,23.128 9.024,23.656 9.325,24.065 
	8.802,24.781 8.158,24.408 7.105,24.444 7.105,25.196 6.804,25.196 6.732,24.859 6.281,24.932 6.203,24.065 5.794,24.517 
	5.342,24.331 4.512,24.408 4.362,24.781 3.874,24.896 3.796,24.48 2.936,24.596 2.936,24.859 2.334,24.896 2.069,24.71 
	1.769,24.859 1.69,25.311 0.68,25.348 0.15,25.984 0.601,26.321 0,26.815 0.186,27.151 0.036,27.977 0.638,28.055 0.866,27.825 
	0.981,27.977 2.406,27.79 3.345,27.115 2.521,27.904 2.593,28.277 3.345,27.94 3.195,28.47 4.025,28.506 3.989,28.729 3.086,28.692 
	2.37,28.506 1.504,28.091 0.981,28.692 1.654,28.921 1.618,29.932 1.805,29.781 2.22,29.144 3.008,29.595 3.387,29.673 
	3.537,30.274 3.309,30.684 2.822,30.647 2.37,30.647 1.618,30.762 0.337,30.835 0.078,31.177 0.451,31.399 0.866,31.363 
	1.203,31.665 1.69,31.629 2.485,32.53 2.671,33.506 2.406,34.034 3.195,34.186 4.061,34.144 4.247,33.807 3.91,33.354 4.247,33.506 
	4.59,33.47 5.192,33.807 5.565,33.733 5.565,33.091 5.715,33.733 6.203,34.522 7.256,34.595 7.298,34.372 7.556,34.745 8.2,34.858 
	8.687,34.858 9.139,35.574 9.74,35.726 9.963,35.389 9.855,35.798 10.378,36.026 11.058,36.699 11.281,37.115 11.208,37.603 
	11.13,38.096 11.581,38.433 11.81,38.168 11.581,37.867 11.581,37.193 12.033,37.302 12.183,36.851 12.297,37.115 12.785,37.53 
	13.013,37.151 12.785,36.628 13.2,37.193 13.723,37.115 13.615,36.851 14.102,36.965 14.475,37.416 14.289,37.717 13.801,37.566 
	13.236,37.302 12.935,37.681 13.386,37.832 13.723,38.354 15.757,38.168 16.28,38.282 16.021,38.505 16.058,38.848 16.13,38.901 
	16.292,38.872 16.629,38.534 16.852,38.794 17.453,38.794 18.169,38.421 19.222,38.006 19.258,36.953 20.239,36.43 22.567,36.314 
	22.718,35.899 23.097,35.526 23.921,35.413 23.957,34.998 24.523,35.075 24.86,35.526 25.618,35.714 25.762,35.413 25.955,34.732 
	26.442,33.529 26.707,33.379 27.344,33.458 27.344,32.44 27.08,32.176 27.08,31.087 26.965,30.714 26.965,30.112 27.344,29.733 
	27.344,28.98 27.158,28.831 27.194,27.777 26.893,27.628 26.442,27.628 26.063,27.326 25.654,27.813 25.317,27.855 25.016,28.266 
	24.715,28.192 24.071,27.628 23.849,26.912 23.734,26.437 21.887,26.437 21.208,26.021 21.659,25.42 20.756,25.384 20.155,26.063 
	19.439,25.984 19.367,26.399 18.915,26.437 18.879,25.913 18.5,25.799 18.235,26.1 18.235,25.348 17.784,25.684 17.11,25.569 
	16.882,26.021 15.492,26.772 15.492,27.151 15.191,27.151 15.191,26.473 14.403,26.1 14.475,25.42 13.765,24.896 13.765,24.259 
	13.236,24.144 13.272,23.543 12.863,23.507 12.899,23.091 12.147,23.091 12.033,23.464 "/>
<polygon fill="#696969" points="33.511,27.405 33.138,27.44 32.982,27.813 32.422,28.043 31.405,27.892 30.389,28.494 
	30.015,28.229 29.45,28.607 29.035,28.307 28.77,27.855 28.211,27.628 27.832,27.928 27.194,27.85 27.158,28.831 27.344,28.98 
	27.344,29.732 26.965,30.112 26.965,30.714 27.079,31.087 27.079,32.176 27.344,32.44 27.344,33.457 26.706,33.379 26.442,33.53 
	25.954,34.732 25.762,35.413 25.618,35.714 24.859,35.526 24.523,35.076 23.957,34.998 23.921,35.413 23.097,35.526 22.718,35.899 
	22.567,36.314 20.239,36.43 19.258,36.953 19.222,38.006 18.169,38.421 17.453,38.794 16.852,38.794 16.629,38.535 16.292,38.872 
	16.13,38.901 16.322,39.035 15.606,39.672 15.757,39.823 15.907,40.124 15.528,40.653 15.943,40.876 16.659,41.025 16.731,40.725 
	17.146,41.255 17.826,41.255 18.314,40.725 18.951,40.725 18.278,41.062 18.314,41.44 18.464,41.778 18.049,42.192 17.598,42.192 
	17.676,42.759 18.5,42.607 19.481,43.511 18.314,45.015 18.278,45.917 19.439,47.042 19.403,47.379 19.74,47.379 20.455,49.526 
	21.208,49.899 21.96,50.651 22.826,50.651 23.163,51.404 23.993,51.404 24.366,51.97 25.196,52.385 25.232,51.855 25.443,52.054 
	26.592,51.355 27.122,51.32 27.344,51.922 28.06,51.621 28.662,52.072 29.149,51.844 29.564,51.729 29.751,51.507 30.274,51.17 
	29.901,50.791 29.6,51.019 29.564,50.718 29.829,50.225 29.564,49.773 29.787,49.473 29.673,48.42 29.3,47.861 29.564,47.518 
	28.963,46.844 29.185,46.356 28.283,45.604 28.283,45.153 27.91,44.624 28.698,44.287 29.865,44.552 30.389,44.209 30.389,43.685 
	31.405,43.606 32.344,43.421 33.361,43.385 33.475,43.648 33.74,43.872 33.998,43.421 34.714,42.669 35.003,42.669 35.43,41.128 
	36.032,40.412 35.99,39.588 36.369,39.095 36.369,38.872 36.182,38.644 36.555,37.892 37.307,38.421 37.722,38.421 37.494,37.669 
	37.951,37.97 38.21,37.591 39.299,37.29 39.112,36.839 39.377,36.502 39.943,36.279 40.466,35.599 40.466,34.883 40.845,34.883 
	40.995,34.359 41.031,33.572 40.658,33.229 40.959,32.705 41.404,32.14 40.881,31.767 40.394,31.688 39.864,30.9 39.714,30.9 
	39.678,31.273 39.642,31.015 38.854,31.015 38.475,30.449 37.837,30.221 37.65,28.867 37.349,28.458 36.333,28.494 35.316,29.433 
	34.678,29.396 34.486,28.717 33.998,28.53 33.848,27.706 "/>
<polygon fill="#696969" points="21.394,14.139 21.244,14.518 22.038,15.155 22.038,15.985 21.737,16.358 21.923,16.546 
	22.038,16.624 21.96,17.34 22.224,17.94 23.091,18.916 23.277,19.781 23.464,20.047 23.464,21.4 23.915,22.303 23.915,23.355 
	23.428,24.331 23.951,25.684 24.781,25.871 24.853,26.25 24.444,26.437 23.734,26.437 23.849,26.912 24.071,27.628 24.715,28.192 
	25.016,28.265 25.317,27.855 25.654,27.813 26.063,27.326 26.442,27.628 26.893,27.628 27.194,27.777 27.194,27.85 27.832,27.929 
	28.211,27.628 28.77,27.855 29.035,28.308 29.45,28.607 30.015,28.229 30.388,28.493 31.405,27.892 32.422,28.043 32.982,27.813 
	33.138,27.44 33.511,27.404 33.848,27.706 33.998,28.529 34.486,28.717 34.678,29.396 35.316,29.433 36.333,28.493 37.349,28.458 
	37.65,28.866 37.837,30.221 38.475,30.448 38.854,31.015 39.642,31.015 39.678,31.273 39.714,30.9 39.864,30.9 40.394,31.688 
	40.803,31.755 40.803,30.864 40.544,30.521 40.466,30.221 41.031,29.884 41.597,29.77 41.97,29.317 41.898,27.929 41.104,27.255 
	41.068,26.61 40.394,26.159 40.658,25.787 40.502,25.221 39.979,25.034 39.6,24.655 39.377,24.132 38.324,24.096 38.023,23.717 
	38.324,22.851 38.288,22.514 37.909,22.362 37.873,22.099 38.21,21.876 38.252,21.497 38.023,20.595 37.572,19.957 37.951,19.733 
	37.951,19.584 37.572,19.47 37.392,18.044 36.513,18.199 35.081,19.029 33.469,19.668 32.187,18.951 29.107,18.501 28.391,18.128 
	26.923,18.501 26.887,17.598 25.906,16.437 26.207,15.685 26.622,15.685 26.249,14.668 24.631,14.59 23.764,15.191 22.79,14.554 "/>
<polygon fill="#696969" points="45.959,23.494 45.73,23.681 45.73,24.282 44.978,24.655 44.978,25.221 44.756,25.485 43.811,25.485 
	43.366,25.299 42.006,26.009 41.483,26.009 40.941,26.526 41.068,26.61 41.104,27.254 41.898,27.928 41.97,29.318 41.597,29.77 
	41.032,29.883 40.466,30.22 40.544,30.521 40.803,30.864 40.803,31.754 40.881,31.768 41.405,32.141 40.959,32.705 40.659,33.229 
	41.032,33.571 40.995,34.36 40.845,34.883 40.466,34.883 40.466,35.6 39.943,36.279 39.377,36.501 39.112,36.838 39.299,37.29 
	38.21,37.59 37.951,37.969 37.494,37.669 37.723,38.421 37.307,38.421 36.555,37.892 36.182,38.644 36.369,38.872 36.369,39.094 
	35.99,39.588 36.032,40.412 35.43,41.128 35.003,42.668 35.051,42.668 35.202,43.271 35.918,43.42 35.918,43.872 36.82,44.136 
	36.82,44.853 36.784,45.303 37.909,45.303 38.89,45.075 38.812,44.66 39.112,44.473 39.413,44.888 39.678,45.003 39.9,45.905 
	40.544,46.579 40.616,47.108 41.296,47.782 41.296,48.498 41.146,48.949 41.862,49.516 42.235,49.888 42.836,49.966 43.065,50.754 
	43.474,50.978 43.402,51.542 43.101,51.597 43.21,51.621 44.154,51.693 44.491,51.356 45.093,51.958 45.845,51.091 46.182,51.32 
	46.633,51.278 46.783,51.356 47.463,51.393 47.686,50.79 49.568,51.02 50.285,51.205 51.494,51.062 51.675,50.676 52.162,50.116 
	53.1,49.924 53.594,50.074 54.117,49.665 54.081,49.364 53.895,49.214 53.895,48.612 54.905,47.596 55.284,48.011 55.621,47.668 
	55.922,47.632 56.446,46.958 57.313,47.03 57.324,47.235 57.613,46.314 57.426,45.978 57.462,45.49 57.577,44.509 57.161,44.101 
	57.24,43.198 56.861,42.404 56.825,41.88 56.145,41.352 56.036,40.899 56.373,40.412 56.373,39.696 55.922,39.173 55.887,38.794 
	56.639,38.571 56.523,38.156 56.409,37.554 55.922,36.88 55.809,36.465 56.561,36.465 57.089,36.086 57.161,35.527 56.825,35.148 
	57.805,34.323 57.805,33.645 57.313,33.12 57.125,32.52 56.446,31.875 55.507,32.404 55.436,32.104 55.02,32.067 54.905,32.368 
	54.532,32.44 53.516,32.404 53.1,32.669 52.764,32.368 53.365,31.953 53.329,31.315 52.878,31.087 52.499,30.521 51.488,30.449 
	51.073,30.112 50.586,30.563 49.382,30.672 49.305,29.661 49.227,29.546 49.154,29.06 48.366,28.909 48.023,28.494 47.914,27.663 
	47.463,27.591 47.385,27.176 46.861,26.803 46.597,26.159 46.861,25.708 46.597,25.407 46.597,25.034 46.747,24.619 46.446,24.318 
	46.332,23.867 "/>
<polygon fill="#696969" points="59.683,29.511 59.346,29.77 57.877,29.697 57.203,30.033 56.939,30.6 57.239,30.937 56.789,31.466 
	56.445,31.875 57.125,32.519 57.313,33.12 57.806,33.644 57.806,34.323 56.824,35.147 57.162,35.526 57.09,36.087 56.56,36.466 
	55.808,36.466 55.922,36.881 56.41,37.555 56.523,38.156 56.639,38.571 55.887,38.794 55.922,39.173 56.373,39.696 56.373,40.412 
	56.037,40.899 56.145,41.351 56.824,41.881 56.86,42.403 57.239,43.197 57.162,44.101 57.576,44.51 57.463,45.49 57.426,45.978 
	57.612,46.314 57.324,47.234 57.349,47.518 57.991,47.818 58.443,48.312 58.853,48.084 59.231,47.86 59.31,48.197 59.869,48.197 
	60.02,47.896 60.356,48.047 60.471,48.534 60.771,48.463 61.487,47.481 61.86,47.746 62.619,49.173 62.619,49.737 62.805,49.967 
	63.442,49.967 63.666,50.268 64.267,50.268 64.531,50.641 64.496,52.108 63.707,52.71 63.689,52.752 63.744,52.745 63.857,52.781 
	63.894,53.384 64.459,53.497 64.531,53.763 64.832,53.763 65.283,53.497 66.487,53.685 66.715,53.912 67.017,53.612 67.432,53.612 
	67.654,52.408 67.805,52.295 68.178,52.295 68.635,52.596 68.972,52.295 69.194,52.596 69.537,52.259 69.946,52.223 70.139,52.824 
	70.283,53.576 70.549,53.612 70.776,53.083 71.486,50.304 71.752,49.815 72.166,49.773 72.582,50.116 72.883,50.038 73.256,49.773 
	73.635,49.852 73.857,50.34 74.073,50.424 75.061,50.304 75.439,50.003 75.289,49.773 74.838,49.624 74.795,49.1 75.174,48.836 
	75.325,48.197 74.988,47.596 74.76,47.295 74.873,47.181 74.873,46.808 74.573,46.615 74.494,46.314 75.361,46.205 75.439,45.905 
	75.174,45.905 74.953,45.641 74.537,45.641 74.194,45.074 73.894,45.038 73.936,44.552 74.194,44.401 74.157,44.209 74.086,43.985 
	74.272,43.686 74.91,43.385 74.91,43.084 75.139,42.782 75.361,42.481 75.289,42.218 75.397,41.802 75.476,41.2 75.625,41.2 
	75.59,40.978 75.439,40.827 75.397,40.075 75.061,40.039 74.988,39.438 74.573,39.245 74.724,39.059 74.953,38.986 75.439,38.421 
	75.397,38.119 75.097,37.519 74.651,37.44 74.494,37.819 73.67,38.006 73.592,37.819 72.99,37.067 72.653,37.254 72.203,37.218 
	72.053,36.917 71.45,36.952 71.414,36.315 71.078,36.087 71.564,35.563 70.698,34.396 70.024,33.68 69.424,33.343 68.334,33.343 
	68.256,33.83 67.769,34.095 66.529,34.132 66.336,34.547 66.071,34.511 65.85,34.095 65.098,34.475 63.594,34.396 63.406,33.98 
	62.991,33.422 62.92,32.741 62.317,32.025 61.938,32.291 61.258,31.767 61.373,30.75 60.398,29.733 59.947,29.733 "/>
<polygon fill="#696969" points="79.91,33.006 79.199,33.12 79.086,33.493 78.707,33.758 78.447,33.457 78.262,33.572 78.406,33.794 
	78.033,34.023 78.146,34.324 77.731,34.474 77.731,34.961 77.203,34.961 77.166,35.262 76.643,35.376 76.679,35.828 77.016,35.864 
	76.83,36.086 76.715,36.838 76.377,36.838 75.813,37.067 75.211,36.838 74.688,37.067 74.688,37.446 75.097,37.518 75.397,38.12 
	75.439,38.421 74.951,38.986 74.724,39.058 74.572,39.245 74.988,39.438 75.061,40.039 75.397,40.075 75.439,40.827 75.59,40.979 
	75.625,41.2 75.476,41.2 75.397,41.802 75.289,42.217 75.361,42.482 75.139,42.783 74.91,43.083 74.91,43.384 74.272,43.685 
	74.086,43.986 74.158,44.209 74.193,44.401 73.936,44.551 73.894,45.039 74.193,45.075 74.537,45.64 74.951,45.64 75.174,45.905 
	75.439,45.905 75.361,46.206 74.494,46.314 74.572,46.615 74.873,46.808 74.873,47.181 74.76,47.295 74.988,47.596 75.326,48.197 
	75.174,48.835 74.795,49.1 74.838,49.623 75.289,49.774 75.439,50.002 75.061,50.303 74.074,50.423 74.537,50.604 75.289,51.657 
	75.776,51.879 75.776,52.409 76.342,52.331 77.058,51.542 77.66,51.843 77.66,52.295 78.748,52.295 80.313,50.574 80.246,50.538 
	80.318,49.75 80.885,49.076 80.506,48.925 80.547,48.661 82.875,46.477 82.804,44.672 83.627,44.263 84.193,43.998 84.717,43.511 
	84.759,42.795 85.283,42.53 86.485,41.14 86.299,40.689 86.715,40.502 87.201,39.901 86.937,39.636 86.035,39.823 85.998,39.672 
	86.973,38.547 87.473,38.469 87.285,37.669 87.172,37.254 86.642,37.332 86.569,36.881 86.756,36.538 86.793,36.086 86.684,35.828 
	86.004,35.298 85.402,35.262 85.252,34.961 84.049,34.324 83.711,33.945 83.375,33.722 83.074,33.872 83.031,34.095 82.731,34.281 
	82.545,34.281 81.979,33.644 81.19,33.644 80.854,33.908 80.554,33.945 80.065,33.572 80.103,33.156 "/>
<polygon fill="#696969" points="90.926,20.835 90.209,21.034 89.879,21.611 89.879,22.177 89.578,22.441 89.313,22.441 
	88.826,22.098 88.446,22.363 87.996,22.363 87.623,21.99 86.906,21.876 86.492,21.688 86.342,21.124 86.004,21.497 85.817,22.363 
	85.324,22.514 85.324,23.001 85.817,23.229 86.19,23.494 86.041,23.831 86.383,24.054 86.984,23.603 88.031,24.204 87.586,25.034 
	87.623,25.299 87.924,25.6 87.694,26.388 86.942,27.14 86.527,27.104 86.793,27.363 86.642,28.043 86.793,29.059 87.508,29.246 
	87.094,30.184 86.642,31.087 86.756,31.652 86.383,32.519 85.74,33.078 85.703,34.546 85.234,34.949 85.252,34.961 85.402,35.262 
	86.004,35.298 86.684,35.828 86.793,36.087 86.756,36.538 86.569,36.881 86.642,37.332 87.172,37.254 87.285,37.669 87.473,38.469 
	87.918,38.396 87.84,38.806 88.104,39.035 89.494,38.998 90.209,38.433 90.246,37.603 90.625,37.115 90.131,36.55 89.873,35.948 
	90.174,35.539 90.174,34.594 90.359,34.143 90.359,33.391 90.696,32.904 90.324,32.38 90.281,31.177 91.263,29.258 91.148,28.169 
	91.6,26.701 91.713,25.419 92.688,24.71 92.688,24.258 93.067,23.765 93.369,23.765 93.705,23.428 93.633,22.79 93.97,21.888 
	94.494,21.774 93.97,21.358 93.031,21.25 92.201,20.835 91.636,21.172 91.334,20.835 "/>
<path fill="#696969" d="M73.484,15.877l-0.266,0.434l-0.337,0.223l-0.264-0.259h-0.565l-0.109-0.15l-0.379,0.71l-0.15,0.265
	l0.452,0.565l-0.151,0.752L71.3,18.754l0.042,0.265l0.145,0.373l-0.223,0.228l-0.451,0.224l0.072,0.415l0.192,0.035l-0.336,0.302
	l0.258,0.564l0.265,0.831l-0.336,0.373l0.602-0.036l-0.301,0.938l-0.416,0.187l-0.229,0.565l0.229,0.187l-0.265,0.451l0.078,0.301
	l0.716,0.565l0.036,1.318l0.788,0.113l0.488,0.524l0.902,0.451l0.336,0.113l0.795,0.866l-0.338,0.337l0.26,0.373l0.602,0.043
	l0.529,0.709h0.451l0.108,0.494l0.493,0.072l0.107,0.337l-0.336,0.229l-0.223,1.017l1.053,0.523v0.788l0.41-0.15l0.342,0.271
	l0.259-0.155l-0.144-0.224l0.187-0.114l0.258,0.302l0.379-0.266L79.2,33.12l0.709-0.113l0.192,0.149l-0.035,0.415l0.486,0.373
	l0.301-0.036l0.338-0.265h0.787l0.566,0.638h0.186l0.302-0.186l0.042-0.224l0.301-0.149l0.337,0.222l0.337,0.379l1.186,0.626
	l0.469-0.402l0.036-1.469l0.644-0.56l0.373-0.866l-0.113-0.565l0.451-0.902l0.414-0.939l-0.716-0.186l-0.149-1.018l0.149-0.68
	l-0.265-0.258l0.416,0.036l0.752-0.752l0.228-0.789l-0.301-0.3l-0.036-0.266l0.446-0.83l-1.048-0.602l-0.602,0.451l-0.343-0.223
	l0.151-0.337l-0.373-0.265L85.324,23v-0.486l0.494-0.15l0.186-0.867l0.337-0.373l0.15,0.566l0.416,0.186l0.715,0.115l0.374,0.373
	h0.451l0.379-0.265l0.486,0.343h0.266l0.301-0.265v-0.565l0.331-0.578l-0.079,0.024l-0.258-0.373l-0.752-0.451l-0.266-0.415
	l-0.902,0.078l-0.529,0.487l-1.275,0.036l-0.379-0.265c-0.025-0.046-0.211-0.373-0.373-0.464c-0.006-0.003-0.017-0.008-0.024-0.012
	c-0.005-0.002-0.013-0.004-0.019-0.006c-0.002-0.001-0.01-0.006-0.012-0.007c0,0-0.005,0-0.006,0c-0.005,0-0.014,0-0.018,0
	c-0.176,0-0.518-0.196-0.56-0.222l-0.53,0.222l-0.035,0.452l-0.639,0.078l-0.379-0.716l-0.222-0.078V18.88l-0.53-0.229l-0.035-0.903
	l-0.38-0.373l-0.788-0.379h-0.373l-0.113,0.078h-0.379l-0.524-0.451l-0.565,0.036l-0.451,0.379L78.7,17.226h-0.638l-0.223-0.229
	h-0.602l-0.68-0.752h-0.867l-0.45,0.415l-0.638,0.036l-0.224,0.229h-0.228l-0.151-0.717l-0.3-0.301L73.484,15.877z"/>
<polygon fill="#696969" points="69.152,9.97 68.773,10.529 68.436,10.871 68.436,11.208 68.436,11.66 67.985,11.96 67.161,12.226 
	66.709,12.412 66.18,11.997 65.465,11.997 65.362,12.664 65.699,13.303 65.362,13.604 65.326,14.168 65.512,14.47 65.362,14.92 
	64.797,15.222 64.797,15.709 64.08,15.859 63.967,16.16 64.459,16.426 64.309,16.948 64.194,17.399 64.231,18.682 63.967,18.753 
	63.328,18.338 62.877,18.53 62.955,18.903 62.161,18.903 61.451,19.434 61.451,20.444 61.975,20.786 62.125,21.123 61.26,21.196 
	61.15,21.539 61.487,21.762 61.338,21.99 61,22.141 61.072,22.399 61.559,22.399 61.752,22.664 61.415,22.893 61.114,23.681 
	60.549,23.945 60.356,24.354 60.17,24.583 60.213,24.806 59.911,24.998 59.833,25.521 60.133,25.708 60.284,26.273 60.098,26.61 
	60.213,26.875 60.771,26.839 60.771,27.141 60.248,27.362 60.213,27.814 59.947,28.157 59.797,28.909 59.713,29.54 59.947,29.733 
	60.398,29.733 61.373,30.75 61.26,31.767 61.938,32.29 62.317,32.025 62.92,32.741 62.991,33.421 63.406,33.98 63.594,34.396 
	65.098,34.475 65.85,34.096 66.072,34.511 66.336,34.546 66.529,34.131 67.768,34.096 68.256,33.83 68.334,33.344 69.424,33.344 
	70.024,33.681 70.698,34.396 71.565,35.563 71.077,36.086 71.414,36.315 71.45,36.952 72.053,36.916 72.202,37.218 72.654,37.253 
	72.99,37.067 73.592,37.819 73.67,38.005 74.495,37.819 74.651,37.44 74.688,37.446 74.688,37.067 75.211,36.838 75.813,37.067 
	76.379,36.838 76.715,36.838 76.829,36.086 77.016,35.864 76.678,35.827 76.643,35.376 77.166,35.263 77.202,34.961 77.731,34.961 
	77.731,34.475 78.146,34.323 78.032,34.022 78.146,33.95 77.805,33.681 77.395,33.83 77.395,33.042 76.342,32.519 76.564,31.502 
	76.901,31.273 76.793,30.937 76.299,30.864 76.191,30.371 75.74,30.371 75.211,29.661 74.609,29.619 74.35,29.245 74.688,28.909 
	73.893,28.042 73.557,27.929 72.654,27.478 72.166,26.953 71.379,26.839 71.342,25.521 70.627,24.956 70.549,24.655 70.813,24.204 
	70.584,24.018 70.813,23.452 71.229,23.266 71.528,22.327 70.928,22.363 71.264,21.99 70.999,21.159 70.74,20.595 71.077,20.293 
	70.885,20.258 70.813,19.843 71.264,19.619 71.486,19.392 71.342,19.019 71.301,18.753 71.715,18.416 71.865,17.664 71.414,17.099 
	71.565,16.834 71.944,16.124 72.053,16.274 72.617,16.274 72.883,16.533 73.219,16.311 73.484,15.877 73.213,15.835 73.063,15.083 
	72.762,14.854 71.709,14.74 71.522,14.253 71.18,14.03 69.977,13.88 69.904,13.014 70.055,12.863 70.055,12.526 69.453,12.147 
	69.567,11.732 69.719,11.359 69.453,11.13 69.868,10.758 69.868,10.077 69.719,9.97 "/>
<polygon fill="#696969" points="46.464,7.785 46.362,9.024 47.192,9.776 47.192,10.155 46.175,9.555 44.955,11.059 45.279,11.196 
	45.694,11.16 45.88,11.533 47.536,13.152 47.649,13.825 48.022,14.505 47.649,14.957 47.5,15.33 47.8,15.33 47.649,15.709 
	47.5,16.461 47.722,16.834 47.722,17.478 48.101,17.478 47.95,17.736 47.686,18.229 47.578,18.566 47.915,18.867 48.022,19.734 
	48.215,20.034 47.95,20.107 47.613,19.92 47.553,20.365 47.578,20.335 47.722,20.672 47.95,21.045 48.967,21.123 49.684,21.045 
	50.17,20.672 50.772,21.045 51.073,21.274 51.524,21.159 51.934,20.974 52.728,21.389 53.551,21.875 53.816,22.141 54.268,21.839 
	54.641,22.063 54.869,22.248 55.207,22.212 55.435,21.911 55.959,22.212 56.603,21.948 56.976,22.063 57.349,21.762 57.576,21.647 
	57.991,21.948 58.106,22.778 59.116,23.752 59.453,23.867 59.646,24.318 60.278,24.45 60.356,24.354 60.549,23.945 61.114,23.681 
	61.416,22.893 61.752,22.664 61.56,22.399 61.072,22.399 61,22.141 61.336,21.99 61.487,21.762 61.15,21.538 61.258,21.196 
	62.125,21.123 61.975,20.786 61.451,20.443 61.451,19.434 62.162,18.903 62.955,18.903 62.877,18.53 63.328,18.338 63.967,18.753 
	64.23,18.682 64.194,17.399 64.31,16.948 64.459,16.426 63.967,16.16 64.08,15.859 64.797,15.709 64.797,15.222 65.361,14.92 
	65.512,14.47 65.326,14.168 65.361,13.604 65.698,13.303 65.361,12.664 65.465,11.996 64.701,11.996 64.496,12.136 63.779,11.948 
	63.629,11.461 63.406,11.461 62.991,11.834 62.92,11.497 62.09,11.419 61.86,11.232 61.602,11.196 61,11.611 60.699,11.348 
	60.435,11.348 59.832,11.763 59.381,11.497 58.931,11.763 58.78,11.799 58.666,11.569 58.25,11.569 57.949,11.763 57.648,11.685 
	57.313,11.348 56.41,11.348 55.844,11.648 55.844,11.384 55.699,11.118 55.356,11.269 54.941,11.497 55.17,11.16 55.135,10.859 
	54.641,10.517 54.641,10.896 54.303,10.896 53.516,10.631 53.178,10.366 52.836,10.596 52.728,10.896 52.578,10.933 52.391,10.745 
	52.391,10.217 52.951,9.844 52.728,9.464 52.276,9.656 52.047,9.464 51.109,9.578 50.621,9.765 50.129,9.578 50.129,9.205 
	49.455,8.904 49.269,8.453 49.004,8.562 48.287,8.002 47.95,7.888 47.686,8.225 47.234,8.339 47.048,7.924 "/>
<polygon fill="#696969" points="44.954,11.059 44.708,11.359 43.095,12.599 40.237,13.314 38.354,13.988 36.814,14.818 
	35.911,16.172 35.726,17.226 36.478,17.79 37.566,18.014 37.391,18.043 37.572,19.47 37.951,19.583 37.951,19.734 37.572,19.956 
	38.023,20.595 38.252,21.496 38.21,21.875 37.874,22.099 37.909,22.363 38.289,22.514 38.324,22.851 38.023,23.717 38.324,24.097 
	39.377,24.133 39.599,24.655 39.979,25.034 40.502,25.222 40.658,25.786 40.395,26.159 40.941,26.526 41.483,26.01 42.006,26.01 
	43.366,25.3 43.812,25.485 44.755,25.485 44.979,25.222 44.979,24.655 45.73,24.282 45.73,23.681 45.936,23.513 45.917,23.344 
	46.109,23.151 45.772,23.079 45.772,22.778 45.581,22.478 45.73,22.291 46.783,21.99 47.048,21.539 47.276,20.708 47.553,20.365 
	47.613,19.92 47.95,20.107 48.215,20.034 48.022,19.734 47.915,18.867 47.577,18.566 47.686,18.23 47.95,17.736 48.102,17.478 
	47.722,17.478 47.722,16.834 47.5,16.461 47.649,15.709 47.8,15.33 47.5,15.33 47.649,14.957 48.022,14.505 47.649,13.826 
	47.535,13.152 45.881,11.533 45.694,11.16 45.279,11.196 "/>
<polygon fill="#696969" points="53.396,0 52.192,0.566 50.315,0.866 48.131,1.281 46.477,2.558 46.477,7.635 46.464,7.785 
	47.048,7.924 47.234,8.339 47.686,8.225 47.95,7.887 48.287,8.002 49.004,8.562 49.269,8.453 49.454,8.904 50.129,9.205 
	50.129,9.578 50.621,9.766 51.109,9.578 52.047,9.464 52.276,9.656 52.728,9.464 52.95,9.843 52.391,10.216 52.391,10.745 
	52.577,10.933 52.728,10.896 52.836,10.595 53.178,10.366 53.516,10.631 54.303,10.896 54.641,10.896 54.641,10.518 55.135,10.86 
	55.17,11.16 54.941,11.497 55.356,11.27 55.699,11.118 55.844,11.383 55.844,11.648 56.409,11.347 57.313,11.347 57.649,11.685 
	57.949,11.762 58.25,11.57 58.666,11.57 58.78,11.798 58.93,11.762 59.381,11.497 59.834,11.762 60.435,11.347 60.699,11.347 
	61,11.612 61.602,11.197 61.86,11.233 62.09,11.419 62.92,11.497 62.991,11.834 63.406,11.461 63.629,11.461 63.779,11.949 
	64.495,12.135 64.7,11.997 64.641,11.997 64.604,11.624 65.356,11.172 65.241,10.456 64.525,10.271 64.713,10.077 64.713,9.554 
	65.277,9.139 65.127,8.838 63.924,7.9 61.818,8.014 61.596,8.387 61.332,8.387 61.367,7.069 60.766,6.359 60.314,6.433 
	60.049,6.131 59.297,6.468 59.039,6.209 58.51,6.131 58.359,5.644 58.322,4.139 57.985,3.989 57.943,3.76 57.721,3.76 57.644,3.31 
	57.155,3.352 56.217,3.652 55.766,4.211 55.314,4.211 55.014,3.838 54.899,3.423 54.526,3.008 53.998,3.008 53.774,2.6 
	53.774,1.955 54.033,1.546 53.883,0.981 "/>
<polygon fill="#696969" points="47.578,20.336 47.276,20.709 47.048,21.538 46.795,21.966 46.783,21.99 45.73,22.291 45.581,22.478 
	45.772,22.778 45.772,23.078 46.109,23.151 45.917,23.344 45.936,23.513 45.959,23.494 46.333,23.867 46.446,24.318 46.748,24.619 
	46.597,25.034 46.597,25.407 46.861,25.709 46.597,26.159 46.861,26.804 47.384,27.177 47.463,27.592 47.915,27.663 48.022,28.493 
	48.365,28.908 48.974,29.023 49.153,29.06 49.226,29.547 49.305,29.66 49.383,30.672 50.586,30.563 51.072,30.112 51.488,30.449 
	52.498,30.521 52.644,30.737 52.644,29.979 53.485,29.427 53.232,29.096 53.342,28.097 53.485,27.881 53.306,26.882 53.637,26.622 
	53.569,26.153 53.154,25.961 52.457,25.961 52.053,25.738 51.885,25.822 51.789,25.642 51.885,25.359 51.825,25.257 51.892,25.022 
	51.879,25.022 51.512,24.836 51.211,24.752 51.17,24.619 51.164,24.505 51.344,24.301 51.543,24.288 51.633,24.168 51.85,24.071 
	51.776,23.897 51.879,23.88 51.957,23.711 51.879,23.591 51.795,23.572 51.765,23.434 52.775,23.367 53.33,23.115 53.685,22.862 
	53.799,22.122 53.551,21.876 52.728,21.389 51.934,20.974 51.524,21.159 51.073,21.274 50.772,21.046 50.17,20.673 49.684,21.046 
	48.967,21.124 47.95,21.046 47.722,20.673 "/>
<polygon fill="#696969" points="57.576,21.647 57.348,21.761 56.975,22.063 56.602,21.948 55.959,22.213 55.435,21.912 
	55.207,22.213 54.869,22.249 54.641,22.063 54.268,21.84 53.816,22.141 53.799,22.122 53.684,22.862 53.328,23.115 52.775,23.368 
	51.765,23.435 51.795,23.572 51.88,23.59 51.957,23.711 51.88,23.879 51.777,23.897 51.849,24.072 52.337,24.066 52.492,24.306 
	52.523,24.644 52.535,24.644 52.523,24.728 52.492,24.806 52.57,24.806 52.613,24.771 52.595,24.709 52.836,24.697 52.896,24.721 
	52.896,24.848 52.836,24.975 52.486,24.926 52.433,24.878 52.271,24.992 52.113,25.034 51.892,25.022 51.824,25.257 51.886,25.359 
	51.789,25.643 51.886,25.822 52.054,25.738 52.457,25.961 53.154,25.961 53.57,26.153 53.636,26.623 53.305,26.881 53.486,27.88 
	53.341,28.097 53.232,29.095 53.486,29.426 52.644,29.98 52.644,30.738 52.878,31.087 53.328,31.315 53.365,31.953 52.764,32.368 
	53.101,32.669 53.516,32.404 54.533,32.44 54.906,32.368 55.02,32.067 55.435,32.104 55.507,32.404 56.445,31.875 56.789,31.466 
	57.24,30.937 56.939,30.6 57.203,30.034 57.878,29.697 59.346,29.77 59.683,29.51 59.713,29.54 59.797,28.909 59.947,28.157 
	60.212,27.814 60.248,27.363 60.771,27.141 60.771,26.839 60.212,26.875 60.098,26.611 60.283,26.274 60.134,25.708 59.832,25.522 
	59.91,24.998 60.212,24.806 60.17,24.583 60.277,24.451 59.646,24.318 59.453,23.867 59.117,23.753 58.105,22.778 57.992,21.948 "/>
<polygon fill="#696969" points="72.166,49.773 71.752,49.815 71.486,50.303 70.776,53.083 70.674,53.312 70.549,53.611 
	70.283,53.576 70.139,52.824 69.946,52.223 69.537,52.259 69.194,52.596 68.972,52.295 68.635,52.596 68.178,52.295 67.805,52.295 
	67.654,52.409 67.576,52.842 67.432,53.611 67.017,53.611 66.715,53.913 66.487,53.685 65.283,53.498 64.832,53.763 64.531,53.763 
	64.459,53.498 63.894,53.384 63.857,52.782 63.744,52.746 63.063,52.859 62.955,53.275 63.221,53.799 63.293,55.94 62.39,55.982 
	62.354,56.319 62.955,56.807 62.619,57.144 62.504,57.974 62.955,58.576 63.364,59.551 64.346,60.193 64.683,61.434 63.967,62.107 
	64.08,62.559 65.133,62.901 65.963,62.222 66.373,62.186 67.576,62.709 67.504,63.425 68.105,63.389 68.58,63.937 68.93,63.84 
	69.58,63.72 69.748,62.979 70.645,62.451 70.729,61.265 70.758,61.247 71.547,60.855 71.42,60.609 70.892,60.08 71.709,59.791 
	72.774,59.545 73.592,58.485 73.057,58.035 73.088,57.643 73.1,57.499 73.467,57.499 73.996,57.992 74.488,57.746 74.735,57.012 
	74.982,56.723 75.308,56.765 75.631,57.054 75.801,57.583 77.311,59.424 77.762,59.099 77.84,58.401 78.334,58.316 78.334,57.09 
	78.58,56.885 78.658,55.784 78.754,55.862 78.742,55.46 78.537,55.086 78.623,54.027 78.989,54.231 79.193,53.858 79.561,53.738 
	79.939,53.438 79.53,53.438 79.53,52.722 79.981,52.457 80.655,52.385 80.697,52.006 80.469,51.855 81.035,51.14 80.957,50.917 
	80.313,50.574 78.748,52.295 77.66,52.295 77.66,51.844 77.058,51.543 76.342,52.331 75.776,52.409 75.776,51.88 75.289,51.657 
	74.537,50.604 73.857,50.34 73.635,49.852 73.256,49.773 72.883,50.039 72.582,50.117 "/>
<path fill="#696969" d="M84.266,50.466l-0.86,0.149l-0.831,0.675l-0.222-0.337l-0.415,0.035l-0.379,0.831l0.042,0.337l0.409,0.337
	l-0.752,0.493l-0.488,0.451h-0.83l-0.379,0.301l-0.367,0.12l-0.204,0.373l-0.366-0.204l-0.086,1.06l0.205,0.373l0.012,0.402
	l-0.096-0.079l-0.078,1.102l-0.246,0.205v1.227l-0.494,0.085L77.762,59.1l-0.451,0.324l-0.006-0.006l-1.504-1.835l-0.168-0.529
	l-0.325-0.289l-0.325-0.042l-0.247,0.289l-0.247,0.734l-0.492,0.246l-0.529-0.493H73.1l-0.043,0.535l0.535,0.451l-0.817,1.06
	l-1.065,0.246l-0.817,0.289l0.528,0.529l0.127,0.246l-0.818,0.409l-0.084,1.186l-0.023,0.013l-0.873,0.517l-0.168,0.74l-0.65,0.12
	l-0.35,0.097l0.012,0.019l-0.221,0.901L67.84,65.08l-0.221,0.379l0.149,0.486l0.108,0.266h-0.56l-0.042,0.71l-0.602,0.042
	L66.373,67.9h-0.902l-0.975,0.716l-0.541,0.861l0.09,0.114l0.265,1.384l0.637,0.692l-0.108,0.794l0.801,0.48v1.065l0.427-0.216
	l0.903,0.589l0.427,0.157l0.103-0.746l0.535-0.104l0.156,0.584l0.536-0.054l0.103-0.584l1.221,0.686l0.199-0.402l0.517-0.078
	l0.5-0.073l0.222,0.265l-0.107,0.752l0.149,0.188l0.56-0.566l0.494-0.036l0.107-0.301l-0.637-0.078l-0.109-0.674l0.41-0.638
	l0.529-0.042l0.522,0.494l-0.522,0.71l0.149,0.264l0.753,0.079l0.487-0.416l-0.265,0.566l0.078,0.45l0.787,0.072l1.053,0.079
	l0.152,0.487l0.564,0.415l0.488,0.036l0.336-0.302l0.193-0.564l0.301,0.265l0.222,0.264l0.151-1.396l-0.373-0.072l-0.229-0.486
	l-1.274-0.344L76.299,72.6l0.459-0.301l-0.379-0.265l0.078-0.337l0.601,0.036l0.524,0.266l0.414-0.488l-0.414-0.337l0.035-0.451
	l0.229-0.716l0.788-0.078l0.637-0.259l0.066-0.15l0.049-0.114l-0.301-0.15v-0.451h0.938l0.301-0.301l-0.186-0.337l0.486-0.379
	l0.344,0.15l0.486-0.416l0.861,0.151l0.301-0.337l0.715,0.036v-0.824l-0.3-0.151l-0.151-0.487l-0.787-0.077l-0.114-0.188
	l0.149-0.788l0.266-0.228l0.68-0.073l0.223,0.223l0.115,0.529l0.674-0.078l0.078-0.564l0.336-0.151l0.723,0.036l-0.012-0.024
	l1.125-0.451l0.414,0.266h0.416l0.035-0.451l0.487-0.265l0.187-0.224l0.98-0.379l0.115-0.638l-0.193-0.3l0.53-0.903l-0.488-0.186
	l-0.149-0.53l-1.018-0.602c0,0,0.061-1.152-0.036-1.359c-0.003-0.005-0.009-0.016-0.012-0.019c-0.001-0.001-0.005-0.005-0.006-0.006
	c-0.001,0-0.005,0-0.007,0c0-0.001,0-0.006,0-0.006s-0.004,0-0.006,0c0,0-0.004,0-0.006,0c0,0-0.005,0-0.006,0
	c-0.15,0.037-0.71,0.078-0.71,0.078l-0.565-0.645l0.019-0.618l0.019-0.656l1.28-0.53l0.151-0.373l-0.079-0.83l-0.824-0.859
	L86.6,54.189v-0.343v-0.559l-0.717-0.344l-0.035-0.301l0.414-0.451v-0.523l-0.678-0.716l-0.037-0.487H84.266z"/>
<polygon fill="#696969" points="84.5,64.514 84.163,64.664 84.085,65.229 83.411,65.308 83.297,64.779 83.074,64.556 82.395,64.628 
	82.13,64.856 81.979,65.645 82.094,65.832 82.882,65.91 83.032,66.396 83.333,66.548 83.333,67.372 82.617,67.336 82.316,67.673 
	81.456,67.521 80.969,67.937 80.625,67.787 80.139,68.166 80.325,68.503 80.023,68.804 79.085,68.804 79.085,69.255 79.387,69.405 
	79.271,69.67 78.635,69.929 77.846,70.007 77.617,70.723 77.581,71.174 77.996,71.511 77.581,71.998 77.059,71.733 76.456,71.698 
	76.378,72.034 76.757,72.299 76.3,72.6 76.456,73.238 77.732,73.581 77.96,74.067 78.333,74.14 78.207,75.313 78.184,75.536 
	77.96,75.271 77.659,75.007 77.467,75.572 77.13,75.873 76.986,75.86 76.643,75.837 76.077,75.422 75.928,74.934 74.874,74.855 
	74.086,74.784 74.007,74.333 74.271,73.767 73.785,74.182 73.033,74.104 72.882,73.839 73.406,73.129 72.882,72.636 72.354,72.678 
	71.943,73.315 72.053,73.99 72.689,74.067 72.582,74.369 72.088,74.405 71.529,74.97 71.378,74.784 71.486,74.032 71.264,73.767 
	70.247,73.918 70.049,74.321 70.157,74.381 70.795,75.439 70.795,76.294 71.914,77.407 71.914,77.888 71.48,78.135 70.428,78.737 
	70.157,80.758 69.044,80.602 68.725,81.45 68.99,81.823 67.768,82.568 67.432,83.351 68.623,83.405 70.205,83.52 70.506,83.821 
	69.939,83.821 69.566,84.458 71.18,84.795 72.461,84.573 71.781,83.929 72.232,83.556 72.949,83.856 73.285,84.573 75.434,84.608 
	75.993,84.38 76.107,84.723 75.506,85.246 76.336,85.283 76.186,85.662 75.957,85.926 77.798,85.926 78.7,86.227 78.79,86.347 
	78.827,85.601 79.098,85.295 79.439,85.09 79.404,84.885 79.133,84.615 78.863,84.615 78.688,84.41 78.995,84.133 78.995,84.031 
	78.658,83.863 78.658,83.592 79.404,83.628 79.579,83.49 78.93,82.876 78.965,82.16 78.557,81.823 78.893,81.143 79.711,80.596 
	79.098,80.187 79.079,80.199 79.127,79.934 80.12,79.608 81.348,80.427 82.027,79.916 82.196,79.573 83.152,79.266 83.76,79.675 
	84.645,79.032 85.667,79.067 85.938,78.791 86.509,78.767 86.521,78.761 86.383,78.418 86.553,78.213 86.484,77.942 87.027,77.942 
	87.165,77.773 87.678,77.497 88.086,77.773 88.357,77.6 87.713,77.021 87.027,76.378 86.792,76.306 86.756,75.795 86.348,75.187 
	86.484,74.303 86.689,73.821 87.063,73.515 87.1,73.039 87.609,72.768 87.689,72.738 87.689,72.01 88.219,71.938 87.917,71.674 
	87.538,71.559 87.352,71.072 87.502,70.734 88.176,70.019 88.068,69.49 88.164,69.387 88.52,69.002 88.928,69.038 88.928,68.701 
	88.405,68.437 88.29,67.348 87.875,67.197 87.352,67.275 86.371,66.782 86.221,65.657 85.661,65.471 85.469,65.092 85.223,64.55 "/>
<polygon fill="#696969" points="87.689,72.738 87.611,72.769 87.099,73.039 87.063,73.515 86.689,73.821 86.486,74.302 
	86.347,75.188 86.756,75.794 86.793,76.307 87.027,76.378 87.713,77.022 88.357,77.6 88.086,77.774 87.677,77.497 87.166,77.774 
	87.027,77.942 86.486,77.942 86.552,78.213 86.383,78.417 86.521,78.76 86.51,78.767 85.938,78.79 85.668,79.067 84.645,79.031 
	83.76,79.675 83.152,79.267 82.195,79.573 82.027,79.916 81.348,80.427 80.119,79.609 79.128,79.935 79.08,80.198 79.098,80.187 
	79.711,80.596 78.893,81.144 78.556,81.823 78.965,82.16 78.929,82.876 79.578,83.489 79.404,83.628 78.658,83.592 78.658,83.862 
	78.994,84.031 78.994,84.133 78.688,84.41 78.863,84.614 79.134,84.614 79.404,84.885 79.441,85.09 79.098,85.294 78.826,85.602 
	78.791,86.348 78.893,86.485 79.566,86.786 79.753,87.538 80.169,87.617 80.548,87.353 81.221,86.938 82.389,87.051 82.352,87.353 
	81.973,87.538 82.876,87.58 82.652,87.353 82.574,86.864 83.062,86.528 83.628,86.714 83.857,86.786 84.043,87.016 84.308,86.828 
	84.38,86.335 84.681,86.076 85.469,86.076 85.697,85.733 86.221,85.884 86.822,85.625 86.822,84.645 86.033,84.682 86.636,84.309 
	86.937,83.893 87.015,83.291 88.104,83.141 88.712,82.46 88.742,82.424 88.777,81.564 89.529,81.714 89.795,81.371 90.174,81.45 
	90.21,80.283 91.076,80.21 91.828,79.53 92.502,79.53 92.537,79.115 93.218,78.706 92.839,77.84 93.404,77.354 93.289,76.787 
	94.121,76.522 94.343,75.698 94.234,75.133 94.042,74.796 93.892,74.302 93.332,74.345 91.564,74.982 90.998,74.982 90.023,74.194 
	89.043,73.93 88.477,73.93 88.477,73.249 87.689,72.763 "/>
</svg>
