<?xml version="1.0" encoding="utf-8"?>
<!-- Generator: Adobe Illustrator 16.0.0, SVG Export Plug-In . SVG Version: 6.00 Build 0)  -->
<!DOCTYPE svg PUBLIC "-//W3C//DTD SVG 1.1//EN" "http://www.w3.org/Graphics/SVG/1.1/DTD/svg11.dtd">
<svg version="1.1" id="Calque_1" xmlns="http://www.w3.org/2000/svg" xmlns:xlink="http://www.w3.org/1999/xlink" x="0px" y="0px"
	 width="500px" height="500px" viewBox="0 0 500 500" enable-background="new 0 0 500 500" xml:space="preserve">
<path fill="#FFFFFF" d="M110.115,69.249c-5.906,6.001-11.125,12.799-16.04,19.616c-12.048,16.684-21.895,34.951-29.447,54.093
	c-24.023,60.883-21.239,131.151,7.575,190.003c23.467,47.932,66.179,81.913,116.275,98.793
	c21.886,7.373,46.025,12.743,69.277,12.544c0.723,0,1.359-2.24,1.946-2.245c-7.376,0.061-14.812-0.751-22.111-1.691
	c-17.927-2.315-35.619-6.613-52.621-12.753c-22.655-8.186-44.005-19.978-62.573-35.359c-22.577-18.707-40.106-42.742-51.958-69.49
	c-26.387-59.542-26.611-128.536-1.294-188.361c6.956-16.435,15.748-32.141,26.105-46.683c3.97-5.57,8.737-11.918,13.235-16.486
	C108.898,70.802,110.227,69.133,110.115,69.249"/>
<path fill="#FFFFFF" d="M226.006,442.823c0,0-25.732-3.399-27.942-28.955c-2.2-25.552,0.617-41.527-3.218-46.234
	C194.846,367.634,243.384,412.171,226.006,442.823"/>
<path fill="#FFFFFF" d="M226.305,444.868c0,0-21.151-15.063-40.186,2.119c-19.034,17.19-27.866,30.806-33.885,31.626
	C152.233,478.613,218.104,479.142,226.305,444.868"/>
<path fill="#FFFFFF" d="M108.527,71.428c0,0,1.857-4.016,6.121-3.07c4.259,0.937,6.712,2.208,7.672,1.823
	C122.32,70.182,112.622,75.801,108.527,71.428"/>
<path fill="#FFFFFF" d="M108.177,71.368c0,0,3.522-2.671,1.697-6.64c-1.822-3.961-3.584-6.084-3.415-7.109
	C106.459,57.619,103.03,68.294,108.177,71.368"/>
<path fill="#FFFFFF" d="M102.946,77.541c0,0,2.057-4.438,6.768-3.39c4.73,1.03,7.436,2.439,8.496,2.013
	C118.21,76.164,107.474,82.381,102.946,77.541"/>
<path fill="#FFFFFF" d="M102.557,77.476c0,0,3.902-2.949,1.885-7.341c-2.024-4.382-3.972-6.738-3.784-7.869
	C100.658,62.266,96.863,74.082,102.557,77.476"/>
<path fill="#FFFFFF" d="M97.748,84.255c0,0,2.226-4.804,7.332-3.673c5.108,1.123,8.043,2.644,9.193,2.18
	C114.273,82.762,102.654,89.504,97.748,84.255"/>
<path fill="#FFFFFF" d="M97.328,84.195c0,0,4.217-3.204,2.036-7.953c-2.189-4.753-4.297-7.299-4.1-8.52
	C95.264,67.723,91.16,80.508,97.328,84.195"/>
<path fill="#FFFFFF" d="M92.104,92.412c0,0,2.416-5.208,7.962-3.993c5.546,1.225,8.732,2.88,9.982,2.379
	C110.048,90.798,97.43,98.111,92.104,92.412"/>
<path fill="#FFFFFF" d="M91.65,92.343c0,0,4.582-3.473,2.214-8.63c-2.376-5.156-4.672-7.925-4.449-9.247
	C89.415,74.466,84.951,88.35,91.65,92.343"/>
<path fill="#FFFFFF" d="M86.809,100.18c0,0,2.532-5.458,8.331-4.183c5.81,1.285,9.142,3.014,10.452,2.49
	C105.591,98.487,92.377,106.144,86.809,100.18"/>
<path fill="#FFFFFF" d="M86.331,100.105c0,0,4.797-3.636,2.312-9.038c-2.481-5.398-4.89-8.292-4.651-9.678
	C83.992,81.39,79.317,95.918,86.331,100.105"/>
<path fill="#FFFFFF" d="M81.251,109.287c0,0,2.701-5.829,8.897-4.461c6.204,1.368,9.763,3.214,11.164,2.662
	C101.312,107.488,87.203,115.659,81.251,109.287"/>
<path fill="#FFFFFF" d="M80.738,109.208c0,0,5.119-3.886,2.476-9.65c-2.655-5.769-5.224-8.857-4.973-10.336
	C78.241,89.222,73.251,104.738,80.738,109.208"/>
<path fill="#FFFFFF" d="M75.515,120.12c0,0,2.85-6.144,9.388-4.711c6.541,1.446,10.3,3.389,11.774,2.805
	C96.677,118.214,81.795,126.844,75.515,120.12"/>
<path fill="#FFFFFF" d="M74.974,120.036c0,0,5.402-4.099,2.609-10.184c-2.801-6.079-5.505-9.344-5.243-10.906
	C72.34,98.946,67.072,115.324,74.974,120.036"/>
<path fill="#FFFFFF" d="M69.428,133.216c0,0,2.458-6.91,9.648-6.015c7.192,0.905,11.431,2.625,12.961,1.846
	C92.037,129.047,76.871,139.824,69.428,133.216"/>
<path fill="#FFFFFF" d="M68.846,133.178c0,0,5.407-4.953,1.79-11.227c-3.627-6.274-6.866-9.52-6.74-11.227
	C63.896,110.724,59.861,128.889,68.846,133.178"/>
<path fill="#FFFFFF" d="M63.794,146.585c0,0,1.862-7.591,9.587-7.42c7.726,0.186,12.412,1.554,13.947,0.557
	C87.328,139.722,72.396,152.799,63.794,146.585"/>
<path fill="#FFFFFF" d="M63.166,146.612c0,0,5.201-5.838,0.682-12.108c-4.517-6.265-8.306-9.353-8.361-11.18
	C55.486,123.325,53.172,143.033,63.166,146.612"/>
<path fill="#FFFFFF" d="M59.312,162.147c0,0,1.651-8.472,10.183-8.695c8.54-0.209,13.782,1.044,15.429-0.13
	C84.924,153.322,69.145,168.546,59.312,162.147"/>
<path fill="#FFFFFF" d="M58.621,162.208c0,0,5.435-6.715,0.118-13.397c-5.323-6.673-9.673-9.877-9.821-11.895
	C48.918,136.916,47.406,158.79,58.621,162.208"/>
<path fill="#FFFFFF" d="M55.157,177.854c0,0,0.839-9.094,9.798-10.225c8.962-1.122,14.61-0.348,16.212-1.758
	C81.167,165.871,66.166,183.553,55.157,177.854"/>
<path fill="#FFFFFF" d="M54.436,177.983c0,0,5.011-7.638-1.289-14.102c-6.304-6.464-11.211-9.381-11.584-11.482
	C41.563,152.399,42.272,175.573,54.436,177.983"/>
<path fill="#FFFFFF" d="M52.187,195.438c0,0,0.271-9.669,9.655-11.473c9.39-1.808,15.414-1.377,17.016-2.977
	C78.858,180.988,64.223,200.701,52.187,195.438"/>
<path fill="#FFFFFF" d="M51.438,195.633c0,0,4.772-8.417-2.333-14.821c-7.099-6.394-12.493-9.135-13.037-11.333
	C36.068,169.479,38.416,193.917,51.438,195.633"/>
<path fill="#FFFFFF" d="M50.123,214.108c0,0-0.253-10.457,9.78-12.933c10.04-2.481,16.569-2.356,18.206-4.174
	C78.109,197.001,63.416,219.116,50.123,214.108"/>
<path fill="#FFFFFF" d="M49.326,214.358c0,0,4.674-9.353-3.353-15.869c-8.036-6.506-14.007-9.163-14.721-11.51
	C31.251,186.979,35.166,213.237,49.326,214.358"/>
<path fill="#FFFFFF" d="M50.061,234.512c0,0-0.835-11.111,9.708-14.297c10.552-3.185,17.506-3.408,19.15-5.434
	C78.918,214.781,64.482,239.121,50.061,234.512"/>
<path fill="#FFFFFF" d="M49.226,234.823c0,0,4.468-10.216-4.431-16.708c-8.906-6.488-15.405-8.996-16.288-11.45
	C28.507,206.665,34.102,234.401,49.226,234.823"/>
<path fill="#FFFFFF" d="M51.47,257.462c0,0-3.647-11.871,7.028-17.932c10.689-6.057,18.185-8.013,19.474-10.619
	C77.972,228.911,68.28,258.908,51.47,257.462"/>
<path fill="#FFFFFF" d="M50.636,258c0,0,2.349-12.196-8.92-17.06c-11.275-4.86-18.957-5.978-20.522-8.427
	C21.193,232.513,34.105,261.269,50.636,258"/>
<path fill="#FFFFFF" d="M55.449,280.662c0,0-3.828-12.441,7.359-18.79c11.199-6.353,19.06-8.403,20.414-11.134
	C83.222,250.738,73.061,282.184,55.449,280.662"/>
<path fill="#FFFFFF" d="M54.568,281.232c0,0,2.46-12.794-9.358-17.891c-11.816-5.087-19.868-6.27-21.51-8.829
	C23.7,254.513,37.239,284.66,54.568,281.232"/>
<path fill="#FFFFFF" d="M62.811,304.716c0,0-5.794-12.377,4.915-20.608c10.722-8.244,18.594-11.514,19.602-14.557
	C87.328,269.551,81.346,303.732,62.811,304.716"/>
<path fill="#FFFFFF" d="M61.983,305.435c0,0,0.691-13.657-12.34-17.232c-13.021-3.575-21.575-3.622-23.652-6.052
	C25.991,282.15,44.459,311.527,61.983,305.435"/>
<path fill="#FFFFFF" d="M72.771,331.189c0,0-8.071-14.125,3.824-24.935c11.922-10.817,20.946-15.465,21.846-19.17
	C98.441,287.085,94.668,328.217,72.771,331.189"/>
<path fill="#FFFFFF" d="M71.858,332.122c0,0-0.515-16.272-16.316-19.25c-15.795-2.972-25.941-2.192-28.647-4.878
	C26.895,307.994,51.658,341.049,71.858,332.122"/>
<path fill="#FFFFFF" d="M90.085,358.555c0,0-10.401-13.801,0.698-26.785c11.109-12.994,20.001-19.102,20.453-23.121
	C111.236,308.648,112.761,352.498,90.085,358.555"/>
<path fill="#FFFFFF" d="M89.248,359.663c0,0-2.715-17.074-19.766-18.1c-17.045-1.016-27.636,1.159-30.845-1.303
	C38.637,340.261,69.155,371.78,89.248,359.663"/>
<path fill="#FFFFFF" d="M113.241,385.988c0,0-14.911-12.386-6.151-29.419c8.778-17.047,16.907-26.006,16.36-30.513
	C123.45,326.057,136.427,373.519,113.241,385.988"/>
<path fill="#FFFFFF" d="M112.608,387.407c0,0-7.362-17.937-26.242-14.657c-18.855,3.287-29.857,8.393-33.996,6.523
	C52.37,379.273,93.809,405.813,112.608,387.407"/>
<path fill="#FFFFFF" d="M145.384,410.357c0,0-17.932-11.672-10.494-31.464c7.438-19.807,15.212-30.661,14.035-35.535
	C148.925,343.358,169.21,393.737,145.384,410.357"/>
<path fill="#FFFFFF" d="M144.876,412.004c0,0-10.367-18.73-30.638-12.72c-20.265,6.015-31.668,13.012-36.44,11.495
	C77.798,410.779,126.61,434.578,144.876,412.004"/>
<path fill="#FFFFFF" d="M186.051,431.685c0,0-23.504-7.823-20.967-32.173c2.532-24.365,8.059-38.802,5.319-43.915
	C170.403,355.597,207.874,406.086,186.051,431.685"/>
<path fill="#FFFFFF" d="M185.96,433.669c0,0-17.091-17.94-38.049-5.277c-20.93,12.674-31.659,23.846-37.446,23.543
	C110.465,451.935,172.111,464.307,185.96,433.669"/>
<path fill="#FFFFFF" d="M383.362,63.661c6.14,5.76,11.63,12.345,16.814,18.953c12.714,16.184,23.298,34.037,31.614,52.855
	c26.458,59.872,26.516,130.188,0.105,190.161c-21.514,48.84-62.815,84.519-112.186,103.411
	c-21.565,8.254-45.476,14.589-68.72,15.336c-0.714,0.023-1.449-2.189-2.031-2.171c7.371-0.232,14.77-1.34,22.021-2.583
	c17.822-3.042,35.321-8.05,52.068-14.867c22.299-9.094,43.159-21.744,61.09-37.863c21.803-19.602,38.349-44.318,49.113-71.529
	c23.951-60.563,21.393-129.51-6.328-188.255c-7.613-16.147-17.035-31.487-27.965-45.589c-4.199-5.412-9.214-11.56-13.893-15.943
	C384.635,65.168,383.239,63.554,383.362,63.661"/>
<path fill="#FFFFFF" d="M282.659,441.617c0,0,25.581-4.442,26.748-30.063c1.171-25.616-2.3-41.472,1.349-46.331
	C310.756,365.223,264.056,411.684,282.659,441.617"/>
<path fill="#FFFFFF" d="M282.445,443.667c0,0,20.522-15.901,40.238,0.501c19.713,16.402,29.085,29.646,35.134,30.235
	C357.817,474.403,292.021,477.584,282.445,443.667"/>
<path fill="#FFFFFF" d="M385.034,65.767c0,0-2.021-3.928-6.24-2.815c-4.224,1.113-6.619,2.481-7.595,2.133
	C371.199,65.084,381.12,70.311,385.034,65.767"/>
<path fill="#FFFFFF" d="M385.379,65.701c0,0-3.626-2.522-1.964-6.562c1.662-4.034,3.334-6.228,3.13-7.243
	C386.545,51.896,390.399,62.423,385.379,65.701"/>
<path fill="#FFFFFF" d="M390.854,71.66c0,0-2.233-4.354-6.9-3.121c-4.679,1.229-7.326,2.741-8.4,2.361
	C375.553,70.9,386.527,76.688,390.854,71.66"/>
<path fill="#FFFFFF" d="M391.24,71.586c0,0-4.011-2.801-2.18-7.271c1.846-4.466,3.699-6.891,3.467-8.009
	C392.527,56.306,396.799,67.955,391.24,71.586"/>
<path fill="#FFFFFF" d="M396.323,78.157c0,0-2.421-4.707-7.479-3.38c-5.054,1.335-7.925,2.972-9.093,2.559
	C379.752,77.336,391.63,83.601,396.323,78.157"/>
<path fill="#FFFFFF" d="M396.738,78.074c0,0-4.345-3.024-2.356-7.86c1.992-4.837,3.998-7.466,3.75-8.681
	C398.132,61.533,402.757,74.151,396.738,78.074"/>
<path fill="#FFFFFF" d="M402.296,86.078c0,0-2.634-5.11-8.122-3.659c-5.491,1.442-8.608,3.223-9.875,2.769
	C384.299,85.188,397.2,91.99,402.296,86.078"/>
<path fill="#FFFFFF" d="M402.741,85.994c0,0-4.714-3.283-2.555-8.542c2.161-5.245,4.345-8.101,4.066-9.418
	C404.253,68.034,409.271,81.728,402.741,85.994"/>
<path fill="#FFFFFF" d="M407.902,93.627c0,0-2.755-5.351-8.505-3.839c-5.745,1.516-9.01,3.375-10.339,2.907
	C389.059,92.695,402.567,99.809,407.902,93.627"/>
<path fill="#FFFFFF" d="M408.366,93.53c0,0-4.932-3.436-2.671-8.931c2.263-5.495,4.545-8.482,4.259-9.868
	C409.954,74.731,415.208,89.074,408.366,93.53"/>
<path fill="#FFFFFF" d="M413.817,102.503c0,0-2.936-5.713-9.07-4.099c-6.146,1.613-9.627,3.608-11.047,3.102
	C393.7,101.506,408.129,109.111,413.817,102.503"/>
<path fill="#FFFFFF" d="M414.327,102.401c0,0-5.272-3.668-2.863-9.544c2.42-5.866,4.857-9.061,4.554-10.536
	C416.018,82.321,421.628,97.634,414.327,102.401"/>
<path fill="#FFFFFF" d="M419.989,113.09c0,0-3.104-6.024-9.576-4.322c-6.474,1.707-10.154,3.807-11.646,3.279
	C398.767,112.047,413.979,120.064,419.989,113.09"/>
<path fill="#FFFFFF" d="M420.521,112.983c0,0-5.561-3.867-3.015-10.063c2.554-6.191,5.125-9.557,4.803-11.106
	C422.309,91.814,428.221,107.956,420.521,112.983"/>
<path fill="#FFFFFF" d="M426.596,125.931c0,0-2.736-6.803-9.883-5.616c-7.147,1.187-11.312,3.08-12.871,2.37
	C403.842,122.685,419.432,132.835,426.596,125.931"/>
<path fill="#FFFFFF" d="M427.182,125.87c0,0-5.605-4.725-2.247-11.143c3.369-6.418,6.477-9.79,6.284-11.492
	C431.219,103.235,435.977,121.224,427.182,125.87"/>
<path fill="#FFFFFF" d="M432.772,139.063c0,0-2.17-7.513-9.88-7.021c-7.717,0.492-12.34,2.045-13.918,1.113
	C408.975,133.155,424.42,145.62,432.772,139.063"/>
<path fill="#FFFFFF" d="M433.398,139.059c0,0-5.438-5.616-1.178-12.062c4.267-6.445,7.93-9.682,7.91-11.514
	C440.131,115.482,443.236,135.088,433.398,139.059"/>
<path fill="#FFFFFF" d="M437.875,154.436c0,0-1.995-8.403-10.53-8.282c-8.533,0.134-13.725,1.609-15.412,0.496
	C411.933,146.65,428.313,161.229,437.875,154.436"/>
<path fill="#FFFFFF" d="M438.564,154.463c0,0-5.699-6.487-0.656-13.374c5.05-6.886,9.26-10.267,9.339-12.284
	C447.247,128.806,449.639,150.601,438.564,154.463"/>
<path fill="#FFFFFF" d="M442.666,169.952c0,0-1.21-9.047-10.209-9.812c-8.992-0.761-14.612,0.245-16.272-1.104
	C416.185,159.036,431.887,176.092,442.666,169.952"/>
<path fill="#FFFFFF" d="M443.385,170.059c0,0-5.317-7.429,0.717-14.144c6.039-6.714,10.821-9.821,11.113-11.941
	C455.215,143.974,455.441,167.155,443.385,170.059"/>
<path fill="#FFFFFF" d="M446.336,187.407c0,0-0.656-9.646-10.111-11.074c-9.453-1.424-15.453-0.751-17.12-2.286
	C419.104,174.047,434.527,193.153,446.336,187.407"/>
<path fill="#FFFFFF" d="M447.097,187.569c0,0-5.11-8.217,1.734-14.899c6.831-6.673,12.107-9.637,12.564-11.853
	C461.396,160.817,460.029,185.334,447.097,187.569"/>
<path fill="#FFFFFF" d="M449.155,205.979c0,0-0.167-10.457-10.295-12.53c-10.135-2.068-16.649-1.683-18.358-3.432
	C420.502,190.017,436.071,211.52,449.155,205.979"/>
<path fill="#FFFFFF" d="M449.963,206.197c0,0-5.051-9.163,2.708-15.999c7.77-6.816,13.629-9.719,14.24-12.089
	C466.911,178.109,464.064,204.504,449.963,206.197"/>
<path fill="#FFFFFF" d="M450.044,226.364c0,0,0.39-11.139-10.274-13.893c-10.675-2.755-17.635-2.699-19.36-4.656
	C420.409,207.815,435.816,231.544,450.044,226.364"/>
<path fill="#FFFFFF" d="M450.895,226.633c0,0-4.881-10.026,3.749-16.87c8.635-6.841,15.027-9.609,15.812-12.104
	C470.455,197.659,465.991,225.608,450.895,226.633"/>
<path fill="#FFFFFF" d="M449.555,249.351c0,0,3.174-12.011-7.74-17.631c-10.923-5.62-18.495-7.266-19.887-9.822
	C421.928,221.898,432.827,251.48,449.555,249.351"/>
<path fill="#FFFFFF" d="M450.415,249.857c0,0-2.839-12.094,8.229-17.408c11.069-5.31,18.697-6.743,20.163-9.252
	C478.807,223.197,467.071,252.459,450.415,249.857"/>
<path fill="#FFFFFF" d="M446.531,272.695c0,0,3.315-12.595-8.12-18.484c-11.447-5.89-19.381-7.615-20.85-10.294
	C417.562,243.917,428.993,274.922,446.531,272.695"/>
<path fill="#FFFFFF" d="M447.429,273.225c0,0-2.974-12.679,8.625-18.248c11.603-5.564,19.602-7.067,21.137-9.702
	C477.19,245.275,464.886,275.955,447.429,273.225"/>
<path fill="#FFFFFF" d="M440.139,297.027c0,0,5.287-12.604-5.743-20.399c-11.041-7.796-19.043-10.749-20.175-13.745
	C414.221,262.883,421.575,296.791,440.139,297.027"/>
<path fill="#FFFFFF" d="M440.999,297.709c0,0-1.243-13.62,11.628-17.715c12.873-4.094,21.417-4.493,23.388-7.002
	C476.015,272.992,458.753,303.093,440.999,297.709"/>
<path fill="#FFFFFF" d="M431.258,323.882c0,0,7.498-14.445-4.83-24.763c-12.342-10.328-21.549-14.608-22.597-18.276
	C403.831,280.843,409.263,321.791,431.258,323.882"/>
<path fill="#FFFFFF" d="M432.209,324.772c0,0-0.151-16.277,15.521-19.89c15.669-3.607,25.836-3.242,28.431-6.033
	C476.16,298.85,452.752,332.883,432.209,324.772"/>
<path fill="#FFFFFF" d="M415.064,351.923c0,0,9.836-14.213-1.773-26.737c-11.63-12.53-20.764-18.271-21.371-22.278
	C391.92,302.907,392.161,346.785,415.064,351.923"/>
<path fill="#FFFFFF" d="M415.95,352.999c0,0,2.021-17.176,19.015-18.883c16.991-1.711,27.659,0.032,30.765-2.561
	C465.729,331.556,436.51,364.291,415.95,352.999"/>
<path fill="#FFFFFF" d="M393.033,380.271c0,0,14.402-12.979,4.955-29.646c-9.453-16.676-17.942-25.301-17.578-29.827
	C380.41,320.798,369.367,368.752,393.033,380.271"/>
<path fill="#FFFFFF" d="M393.72,381.662c0,0,6.636-18.225,25.63-15.706c18.982,2.527,30.179,7.178,34.236,5.146
	C453.586,371.103,413.257,399.293,393.72,381.662"/>
<path fill="#FFFFFF" d="M361.905,405.924c0,0,17.443-12.391,9.214-31.862c-8.24-19.485-16.438-30.026-15.46-34.946
	C355.659,339.115,337.423,390.273,361.905,405.924"/>
<path fill="#FFFFFF" d="M362.482,407.543c0,0,9.598-19.139,30.099-13.958c20.482,5.197,32.164,11.727,36.873,10.016
	C429.454,403.601,381.644,429.36,362.482,407.543"/>
<path fill="#FFFFFF" d="M322.127,428.869c0,0,23.175-8.769,19.662-32.988c-3.527-24.244-9.629-38.448-7.094-43.675
	C334.695,352.206,299.295,404.177,322.127,428.869"/>
<path fill="#FFFFFF" d="M322.301,430.854c0,0,16.355-18.622,37.803-6.816c21.432,11.821,32.603,22.551,38.369,22.018
	C398.473,446.055,337.379,460.899,322.301,430.854"/>
</svg>
