<?xml version="1.0" encoding="utf-8"?>
<!-- Generator: Adobe Illustrator 16.0.0, SVG Export Plug-In . SVG Version: 6.00 Build 0)  -->
<!DOCTYPE svg PUBLIC "-//W3C//DTD SVG 1.1//EN" "http://www.w3.org/Graphics/SVG/1.1/DTD/svg11.dtd">
<svg version="1.1" id="Calque_1" xmlns="http://www.w3.org/2000/svg" xmlns:xlink="http://www.w3.org/1999/xlink" x="0px" y="0px"
	 width="91.863px" height="49.764px" viewBox="0 0 91.863 49.764" enable-background="new 0 0 91.863 49.764" xml:space="preserve">
<path fill="#D3D3D3" d="M46.281,49.762c-6.969,0.02-13.162-1.537-19.12-4.125C17.103,41.268,8.582,34.758,1.083,26.836
	c-1.45-1.531-1.446-2.358,0.019-3.905C8.732,14.866,17.429,8.281,27.695,3.91c6.64-2.827,13.559-4.265,20.797-3.835
	c5.444,0.323,10.658,1.696,15.662,3.827c10.297,4.384,19.018,10.988,26.662,19.082c1.402,1.483,1.398,2.34-0.018,3.838
	c-7.646,8.094-16.367,14.705-26.67,19.07C58.299,48.361,52.229,49.829,46.281,49.762 M66.803,9.394
	c4.663,10.811,0.957,21.439-6.085,27.35c-6.748,5.662-16.804,7.546-25.216,2.786c-12-6.792-14.876-17.211-10.67-30.017
	c-7.605,3.986-14.29,9.177-20.236,15.351c0.126,0.162,0.176,0.241,0.24,0.307c7.05,7.216,15.004,13.152,24.331,17.124
	c4.428,1.886,9.032,3.148,13.843,3.508c6.833,0.511,13.365-0.817,19.636-3.482c9.33-3.963,17.291-9.893,24.342-17.108
	c0.102-0.102,0.168-0.237,0.266-0.378C81.267,18.656,74.603,13.47,66.803,9.394 M45.95,38.147c0.715,0,1.44,0.083,2.143-0.013
	c6.381-0.875,11.247-4.07,14.499-9.644c3.792-6.499,3.08-15.386-1.685-21.179c-0.319-0.388-0.764-0.759-1.226-0.928
	c-8.94-3.261-17.914-3.306-26.924-0.25c-0.943,0.319-1.606,0.852-2.168,1.635c-3.02,4.203-4.224,8.851-3.554,13.993
	C28.259,31.154,36.404,38.258,45.95,38.147"/>
<path fill="#D3D3D3" d="M55.501,19.141c-0.03,5.318-4.172,9.617-9.601,9.587c-5.532-0.031-9.505-4.4-9.532-9.559
	c-0.029-5.243,4.257-9.559,9.505-9.594C51.155,9.539,55.485,13.842,55.501,19.141 M40.26,19.032c-0.097,3.136,2.477,5.8,5.644,5.842
	c3.057,0.04,5.605-2.462,5.703-5.596c0.097-3.053-2.351-5.695-5.363-5.795C42.927,13.373,40.361,15.754,40.26,19.032"/>
</svg>
