<?xml version="1.0" encoding="utf-8"?>
<!-- Generator: Adobe Illustrator 16.0.0, SVG Export Plug-In . SVG Version: 6.00 Build 0)  -->
<!DOCTYPE svg PUBLIC "-//W3C//DTD SVG 1.1//EN" "http://www.w3.org/Graphics/SVG/1.1/DTD/svg11.dtd">
<svg version="1.1" id="Calque_1" xmlns="http://www.w3.org/2000/svg" xmlns:xlink="http://www.w3.org/1999/xlink" x="0px" y="0px"
	 width="64.632px" height="70.047px" viewBox="0 0 64.632 70.047" enable-background="new 0 0 64.632 70.047" xml:space="preserve">
<path fill="#D3D3D3" d="M60.088,70.047H4.543c-0.055-0.038-0.105-0.095-0.166-0.112c-2.93-0.787-4.375-2.654-4.375-5.69
	C-0.001,44.764,0,25.284,0.001,5.803c0-0.25,0.008-0.501,0.023-0.751c0.141-2.249,1.602-4.108,3.76-4.789
	C4.039,0.182,4.29,0.088,4.543,0h55.545c0.055,0.038,0.105,0.096,0.166,0.111c2.932,0.787,4.376,2.655,4.376,5.691
	c0.003,19.481,0.002,38.961,0,58.441c0,0.25-0.007,0.501-0.022,0.751c-0.141,2.25-1.603,4.107-3.76,4.789
	C60.592,69.864,60.341,69.959,60.088,70.047 M5.412,64.601h53.82V5.431H5.412V64.601z"/>
<rect x="24.298" y="32.359" fill="#D3D3D3" width="26.841" height="5.339"/>
<rect x="24.286" y="18.911" fill="#D3D3D3" width="26.846" height="5.254"/>
<rect x="24.267" y="45.88" fill="#D3D3D3" width="26.867" height="5.231"/>
<rect x="13.514" y="32.364" fill="#D3D3D3" width="5.286" height="5.33"/>
<rect x="13.507" y="18.897" fill="#D3D3D3" width="5.29" height="5.282"/>
<rect x="13.507" y="45.844" fill="#D3D3D3" width="5.29" height="5.282"/>
</svg>
